<svg xmlns="http://www.w3.org/2000/svg" xmlns:xlink="http://www.w3.org/1999/xlink" width="500" zoomAndPan="magnify" viewBox="0 0 375 374.999991" height="500" preserveAspectRatio="xMidYMid meet" version="1.0"><defs><g/></defs><g fill="#ffffff" fill-opacity="1"><g transform="translate(29.425784, 206.152897)"><g><path d="M 2.34375 -40.792969 C 1.835938 -40.792969 1.53125 -40.488281 1.53125 -39.976562 L 1.53125 -34.878906 C 1.53125 -34.367188 1.835938 -34.0625 2.34375 -34.0625 L 8.261719 -34.0625 L 8.261719 -0.816406 C 8.261719 -0.253906 8.566406 0 9.078125 0 L 14.378906 0 C 14.941406 0 15.195312 -0.253906 15.195312 -0.816406 L 15.195312 -34.0625 L 21.109375 -34.0625 C 21.671875 -34.0625 21.925781 -34.367188 21.925781 -34.878906 L 21.925781 -39.976562 C 21.925781 -40.488281 21.671875 -40.792969 21.109375 -40.792969 Z M 2.34375 -40.792969 "/></g></g></g><g fill="#ffffff" fill-opacity="1"><g transform="translate(52.88038, 206.152897)"><g><path d="M 22.945312 -28.351562 C 22.945312 -33.144531 20.398438 -35.695312 15.605469 -35.695312 L 3.367188 -35.695312 C 2.855469 -35.695312 2.550781 -35.390625 2.550781 -34.878906 L 2.550781 -0.816406 C 2.550781 -0.304688 2.855469 0 3.367188 0 L 8.363281 0 C 8.871094 0 9.179688 -0.304688 9.179688 -0.816406 L 9.179688 -10.757812 L 13.71875 -10.757812 L 16.164062 -0.714844 C 16.265625 -0.253906 16.523438 0 17.03125 0 L 22.027344 0 C 22.589844 0 22.894531 -0.304688 22.742188 -0.917969 L 20.089844 -11.882812 C 21.976562 -13.054688 22.945312 -15.144531 22.945312 -18.101562 Z M 9.179688 -17.335938 L 9.179688 -29.117188 L 14.277344 -29.117188 C 15.605469 -29.117188 16.316406 -28.402344 16.316406 -27.078125 L 16.316406 -19.378906 C 16.316406 -18.050781 15.605469 -17.335938 14.277344 -17.335938 Z M 9.179688 -17.335938 "/></g></g></g><g fill="#ffffff" fill-opacity="1"><g transform="translate(78.374507, 206.152897)"><g><path d="M 22.894531 -34.878906 C 22.894531 -35.390625 22.691406 -35.695312 22.078125 -35.695312 L 3.316406 -35.695312 C 2.855469 -35.695312 2.550781 -35.390625 2.550781 -34.878906 L 2.550781 -0.816406 C 2.550781 -0.304688 2.855469 0 3.316406 0 L 22.078125 0 C 22.691406 0 22.894531 -0.304688 22.894531 -0.816406 L 22.894531 -5.914062 C 22.894531 -6.476562 22.691406 -6.730469 22.078125 -6.730469 L 9.484375 -6.730469 L 9.484375 -14.277344 L 19.070312 -14.277344 C 19.582031 -14.277344 19.886719 -14.582031 19.886719 -15.144531 L 19.886719 -20.191406 C 19.886719 -20.753906 19.582031 -21.058594 19.070312 -21.058594 L 9.484375 -21.058594 L 9.484375 -28.914062 L 22.078125 -28.914062 C 22.691406 -28.914062 22.894531 -29.269531 22.894531 -29.78125 Z M 22.894531 -34.878906 "/></g></g></g><g fill="#ffffff" fill-opacity="1"><g transform="translate(103.817651, 206.152897)"><g><path d="M 19.53125 -35.695312 C 18.917969 -35.695312 18.5625 -35.390625 18.410156 -34.777344 L 13.308594 -11.726562 L 8.261719 -34.777344 C 8.109375 -35.390625 7.75 -35.695312 7.140625 -35.695312 L 2.5 -35.695312 C 1.734375 -35.695312 1.429688 -35.285156 1.582031 -34.574219 L 9.636719 -0.917969 C 9.789062 -0.304688 10.148438 0 10.757812 0 L 15.859375 0 C 16.46875 0 16.828125 -0.304688 16.980469 -0.917969 L 25.089844 -34.574219 C 25.242188 -35.285156 24.933594 -35.695312 24.171875 -35.695312 Z M 19.53125 -35.695312 "/></g></g></g><g fill="#ffffff" fill-opacity="1"><g transform="translate(130.484512, 206.152897)"><g><path d="M 2.550781 -7.34375 C 2.550781 -2.550781 5.097656 0 9.890625 0 L 15.605469 0 C 20.398438 0 22.945312 -2.550781 22.945312 -7.34375 L 22.945312 -28.351562 C 22.945312 -33.144531 20.398438 -35.695312 15.605469 -35.695312 L 9.890625 -35.695312 C 5.097656 -35.695312 2.550781 -33.144531 2.550781 -28.351562 Z M 11.21875 -6.578125 C 9.890625 -6.578125 9.179688 -7.242188 9.179688 -8.617188 L 9.179688 -27.078125 C 9.179688 -28.402344 9.890625 -29.117188 11.21875 -29.117188 L 14.480469 -29.117188 C 15.808594 -29.117188 16.523438 -28.402344 16.523438 -27.078125 L 16.523438 -8.617188 C 16.523438 -7.242188 15.808594 -6.578125 14.480469 -6.578125 Z M 11.21875 -6.578125 "/></g></g></g><g fill="#ffffff" fill-opacity="1"><g transform="translate(155.97864, 206.152897)"><g><path d="M 22.945312 -28.351562 C 22.945312 -33.144531 20.398438 -35.695312 15.605469 -35.695312 L 3.367188 -35.695312 C 2.855469 -35.695312 2.550781 -35.390625 2.550781 -34.878906 L 2.550781 -0.816406 C 2.550781 -0.304688 2.855469 0 3.367188 0 L 8.363281 0 C 8.871094 0 9.179688 -0.304688 9.179688 -0.816406 L 9.179688 -10.757812 L 13.71875 -10.757812 L 16.164062 -0.714844 C 16.265625 -0.253906 16.523438 0 17.03125 0 L 22.027344 0 C 22.589844 0 22.894531 -0.304688 22.742188 -0.917969 L 20.089844 -11.882812 C 21.976562 -13.054688 22.945312 -15.144531 22.945312 -18.101562 Z M 9.179688 -17.335938 L 9.179688 -29.117188 L 14.277344 -29.117188 C 15.605469 -29.117188 16.316406 -28.402344 16.316406 -27.078125 L 16.316406 -19.378906 C 16.316406 -18.050781 15.605469 -17.335938 14.277344 -17.335938 Z M 9.179688 -17.335938 "/></g></g></g><g fill="#ffffff" fill-opacity="1"><g transform="translate(181.472767, 206.152897)"><g/></g></g><g fill="#ffffff" fill-opacity="1"><g transform="translate(194.219824, 206.152897)"><g><path d="M 24.375 0 C 25.191406 0 25.496094 -0.511719 25.140625 -1.171875 L 15.910156 -21.773438 L 24.578125 -39.570312 C 24.933594 -40.285156 24.628906 -40.792969 23.863281 -40.792969 L 18.511719 -40.792969 C 17.949219 -40.792969 17.59375 -40.539062 17.335938 -40.027344 L 9.484375 -23.964844 L 9.484375 -39.773438 C 9.484375 -40.4375 9.128906 -40.792969 8.464844 -40.792969 L 3.570312 -40.792969 C 2.90625 -40.792969 2.550781 -40.4375 2.550781 -39.773438 L 2.550781 -1.019531 C 2.550781 -0.355469 2.90625 0 3.570312 0 L 8.464844 0 C 9.128906 0 9.484375 -0.355469 9.484375 -1.019531 L 9.484375 -12.289062 L 11.371094 -15.910156 L 17.796875 -0.765625 C 18 -0.253906 18.355469 0 18.96875 0 Z M 24.375 0 "/></g></g></g><g fill="#ffffff" fill-opacity="1"><g transform="translate(221.549527, 206.152897)"><g><path d="M 3.367188 0 C 2.804688 0 2.550781 -0.304688 2.550781 -0.816406 L 2.550781 -34.878906 C 2.550781 -35.390625 2.804688 -35.695312 3.367188 -35.695312 L 8.667969 -35.695312 C 9.179688 -35.695312 9.484375 -35.390625 9.484375 -34.878906 L 9.484375 -0.816406 C 9.484375 -0.304688 9.179688 0 8.667969 0 Z M 3.367188 0 "/></g></g></g><g fill="#ffffff" fill-opacity="1"><g transform="translate(233.58276, 206.152897)"><g><path d="M 20.296875 -35.695312 C 19.683594 -35.695312 19.324219 -35.390625 19.121094 -34.878906 L 13.410156 -21.773438 L 7.699219 -34.878906 C 7.496094 -35.390625 7.140625 -35.695312 6.527344 -35.695312 L 1.429688 -35.695312 C 0.664062 -35.695312 0.304688 -35.183594 0.613281 -34.523438 L 9.945312 -13.359375 L 9.945312 -1.019531 C 9.945312 -0.355469 10.300781 0 10.964844 0 L 15.859375 0 C 16.523438 0 16.878906 -0.355469 16.878906 -1.019531 L 16.878906 -13.359375 L 26.210938 -34.523438 C 26.515625 -35.183594 26.160156 -35.695312 25.394531 -35.695312 Z M 20.296875 -35.695312 "/></g></g></g><g fill="#ffffff" fill-opacity="1"><g transform="translate(260.402583, 206.152897)"><g><path d="M 26.617188 0 C 27.230469 0 27.484375 -0.304688 27.332031 -0.867188 L 18.867188 -34.980469 C 18.765625 -35.492188 18.460938 -35.695312 18 -35.695312 L 10.914062 -35.695312 C 10.453125 -35.695312 10.148438 -35.492188 10.046875 -34.980469 L 1.582031 -0.867188 C 1.429688 -0.304688 1.683594 0 2.242188 0 L 7.242188 0 C 7.699219 0 7.953125 -0.253906 8.058594 -0.714844 L 9.636719 -7.140625 L 19.222656 -7.140625 L 20.855469 -0.714844 C 20.957031 -0.253906 21.210938 0 21.671875 0 Z M 17.644531 -13.054688 L 11.21875 -13.054688 L 14.429688 -26.925781 Z M 17.644531 -13.054688 "/></g></g></g><g fill="#ffffff" fill-opacity="1"><g transform="translate(289.31292, 206.152897)"><g><path d="M 24.375 0 C 25.191406 0 25.496094 -0.511719 25.140625 -1.171875 L 15.910156 -19.222656 L 24.578125 -34.472656 C 24.984375 -35.132812 24.628906 -35.695312 23.863281 -35.695312 L 18.511719 -35.695312 C 17.949219 -35.695312 17.59375 -35.390625 17.335938 -34.929688 L 9.484375 -21.417969 L 9.484375 -34.675781 C 9.484375 -35.335938 9.128906 -35.695312 8.464844 -35.695312 L 3.570312 -35.695312 C 2.90625 -35.695312 2.550781 -35.335938 2.550781 -34.675781 L 2.550781 -1.019531 C 2.550781 -0.355469 2.90625 0 3.570312 0 L 8.464844 0 C 9.128906 0 9.484375 -0.355469 9.484375 -1.019531 L 9.484375 -9.738281 L 11.371094 -13.359375 L 17.796875 -0.765625 C 18.050781 -0.253906 18.355469 0 18.96875 0 Z M 24.375 0 "/></g></g></g><g fill="#ffffff" fill-opacity="1"><g transform="translate(316.642623, 206.152897)"><g><path d="M 26.617188 0 C 27.230469 0 27.484375 -0.304688 27.332031 -0.867188 L 18.867188 -34.980469 C 18.765625 -35.492188 18.460938 -35.695312 18 -35.695312 L 10.914062 -35.695312 C 10.453125 -35.695312 10.148438 -35.492188 10.046875 -34.980469 L 1.582031 -0.867188 C 1.429688 -0.304688 1.683594 0 2.242188 0 L 7.242188 0 C 7.699219 0 7.953125 -0.253906 8.058594 -0.714844 L 9.636719 -7.140625 L 19.222656 -7.140625 L 20.855469 -0.714844 C 20.957031 -0.253906 21.210938 0 21.671875 0 Z M 17.644531 -13.054688 L 11.21875 -13.054688 L 14.429688 -26.925781 Z M 17.644531 -13.054688 "/></g></g></g></svg>